<svg width="96" height="96" viewBox="0 0 96 96" fill="none" xmlns="http://www.w3.org/2000/svg">
<path d="M29.434 70.888V69.028L43.074 50.924L29 27.922V26H64.278L66.014 38.524L64.03 38.896C63.3687 36.9533 62.728 35.3 62.108 33.936C61.5293 32.5307 60.8887 31.394 60.186 30.526C59.5247 29.658 58.7187 29.0173 57.768 28.604C56.8173 28.1493 55.6393 27.922 54.234 27.922H43.136L53.366 45.778V46.398L36.688 69.214L35.324 64.316L56.776 64.254C58.1813 64.254 59.318 64.1713 60.186 64.006C61.0953 63.8407 61.86 63.4893 62.48 62.952C63.1 62.4147 63.658 61.6087 64.154 60.534C64.6913 59.418 65.2287 57.9507 65.766 56.132H67.936L66.324 70.888H29.434Z" fill="url(#paint0_linear_205_73)"/>
<path fill-rule="evenodd" clip-rule="evenodd" d="M96 48C96 74.5097 74.5097 96 48 96C21.4903 96 0 74.5097 0 48C0 21.4903 21.4903 0 48 0C74.5097 0 96 21.4903 96 48ZM48 89C70.6437 89 89 70.6437 89 48C89 25.3563 70.6437 7 48 7C25.3563 7 7 25.3563 7 48C7 70.6437 25.3563 89 48 89Z" fill="#D9D9D9"/>
<path fill-rule="evenodd" clip-rule="evenodd" d="M96 48C96 74.5097 74.5097 96 48 96C21.4903 96 0 74.5097 0 48C0 21.4903 21.4903 0 48 0C74.5097 0 96 21.4903 96 48ZM48 89C70.6437 89 89 70.6437 89 48C89 25.3563 70.6437 7 48 7C25.3563 7 7 25.3563 7 48C7 70.6437 25.3563 89 48 89Z" fill="url(#paint1_linear_205_73)"/>
<defs>
<linearGradient id="paint0_linear_205_73" x1="33.5721" y1="10.888" x2="83.3756" y2="34.2675" gradientUnits="userSpaceOnUse">
<stop stop-color="#815FC2"/>
<stop offset="0.21686" stop-color="#CA65B2"/>
<stop offset="0.417402" stop-color="#F17993"/>
<stop offset="0.614583" stop-color="#F17993"/>
<stop offset="0.797925" stop-color="#F39C73"/>
<stop offset="1" stop-color="#F8D58F"/>
</linearGradient>
<linearGradient id="paint1_linear_205_73" x1="14.5" y1="6.18748e-07" x2="78.1489" y2="87.5281" gradientUnits="userSpaceOnUse">
<stop stop-color="#815FC2"/>
<stop offset="0.21686" stop-color="#CA65B2"/>
<stop offset="0.417402" stop-color="#F17993"/>
<stop offset="0.614583" stop-color="#F17993"/>
<stop offset="0.797925" stop-color="#F39C73"/>
<stop offset="1" stop-color="#F8D58F"/>
</linearGradient>
</defs>
</svg>
